<svg xmlns="http://www.w3.org/2000/svg" viewBox="0 0 111 28" width="111" height="28" fill="#000">
  <path d="M34.13.35c.4.92 1.13 1.63 1.84 2.32.8.33 1.64.57 2.4 1 .53.76.93 1.61 1.51 2.34.34.44.73.85 1.22 1.11-.1-.17-.26-.3-.42-.43.1-.11.25-.11.39-.14-.21-.06-.43-.06-.64-.08l.16-.27-.35-.02c.6-.34 1.3-.49 1.98-.3-.36-.4-.95-.22-1.4-.15.22-.23.54-.35.87-.34.42 0 .83.13 1.24.23-.5-.31-1.1-.4-1.67-.47.4-.14.86-.19 1.27-.02.29.1.56.27.84.39-.5-.4-1.12-.77-1.8-.72l-.01-.07c.73-.28 1.45.2 2.08.53-.33-.58-1.07-.66-1.65-.86.34-.05.7-.08 1.02.03.3.08.54.27.8.42-.41-.48-1.02-.7-1.58-.95.22-.05.44-.09.65-.01.44.14.76.48 1.14.72-.33-.54-.87-.9-1.41-1.22.71-.15 1.22.47 1.59.98a4.89 4.89 0 0 0-1.28-1.6c.67.07 1.2.62 1.35 1.25-.06-.72-.68-1.18-.97-1.8.66.3 1.12.95 1.17 1.67.02-.8-.47-1.46-.86-2.11.55.18.85.73.96 1.26.1.43.1.87.16 1.3.12-1.12-.34-2.2-.8-3.2.4.38.69.86.97 1.33-.08-.57-.47-1.05-.54-1.62.43.26.68.73.78 1.22.1.49.08.99.08 1.49.2-1 .01-2.02-.29-2.96.38.23.52.7.61 1.1.11.48.02.97.1 1.45.13-.85.06-1.72-.08-2.57.4.32.36.9.56 1.35.56-.2.96-.67 1.51-.89-.63.95-1.42 1.8-1.88 2.84-.22.46-.34.94-.44 1.44-.57.36-1.37.36-1.8.94 1.01.26 2.1.83 2.43 1.88a.7.7 0 0 1-.5.47c-.02-.17.03-.5-.22-.51-.05.2.16.37.1.58-.25.08-.55.02-.67-.23-.28-.02-.58 0-.83.15-.51.28-.85.8-1.34 1.1.07.4.06.82.22 1.2.1.25.33.45.6.51.44-.18.9-.32 1.33-.5.13.03.24.19.38.11.43-.16.91-.23 1.36-.1.54.12 1 .47 1.39.85-.13.32-.39.58-.68.78-.75.17-1.53.06-2.28.22-.98.19-1.82.75-2.7 1.16-.6.27-1.14.72-1.81.82-.77 0-1.39-.52-2.08-.78.12-.52.75-.48 1.15-.62-.18-.26-.55-.3-.66-.61.68-.2 1.34-.47 2.03-.65-.14-.2-.38-.27-.61-.22.05-.35-.28-.6-.26-.95-.03.2-.03.4-.04.59-.65.04-1.32-.2-1.96.01-.25.11-.52.15-.8.2-.46.3-.8.86-1.4.9.12-.42.42-.76.65-1.12.6-.98 1.65-1.53 2.6-2.12l-.04-.42c-.15.07-.3.15-.43.25-.15-.12-.22-.3-.3-.46-.14.08-.27.2-.44.22-.09-.16-.17-.31-.23-.48-.1.07-.22.1-.33.12l-.16-.46-.35.09c-.04-.24-.13-.53-.42-.55v-.52c-.1.05-.21.1-.33.14-.02-.18-.01-.37-.05-.55-.18-.17-.45.01-.66.03.12-.17.23-.33.33-.51-.4 0-.83.12-1.21-.07.2-.12.44-.13.65-.22-.45-.18-.96-.1-1.4-.33.26-.2.6-.05.88-.12-.52-.18-1.11-.22-1.55-.58.3-.1.6.1.9.03-.49-.24-1.11-.34-1.4-.85.33.03.62.2.93.28-.52-.39-1.08-.76-1.42-1.34.28-.03.48.2.7.32-.3-.45-.66-.88-.7-1.44.48.4.89.87 1.42 1.18-.36-.61-.9-1.23-.79-1.98.5.47.65 1.23 1.29 1.56-.33-.63-.65-1.33-.53-2.06.35.77.82 1.53 1.55 2-.2-.45-.53-.82-.66-1.3-.1-.32-.08-.67-.03-1zm10.91 11c.34-.2.73-.36 1.13-.3.48.07.86.41 1.19.74-.14.22-.3.46-.58.53-.12.03-.22-.09-.3-.14-.89.25-1.83.23-2.68.57-.38.38-.88.6-1.38.78.05-.1.1-.21.13-.32-.66.37-1.27.81-1.96 1.12.03-.19.03-.39-.1-.53-.32-.38-.79-.58-1.18-.87.95-.36 1.86-.87 2.88-.93l.1-.01c.02.2.23.28.36.42a.64.64 0 0 1-.33-.18l-.02.06c0-.22-.22-.23-.39-.2.42.27.77.77 1.33.73l-.52-.28.13-.23c.24.1.45.28.66.44l.35-.1c-.19-.17-.47-.07-.64-.27l.13-.09-.03-.11c.32.08.5.43.84.41-.17-.18-.4-.3-.6-.44.34.05.63.23.96.3-.14-.34-.54-.37-.86-.37l.05-.02c-.07-.05-.24-.05-.15-.17.13.05.27.22.4.1-.12-.09-.29-.15-.35-.3.42.16.77.44 1.14.69.12-.04.26-.06.37-.13.05-.28-.25-.42-.44-.56.28.09.52.27.7.5.2 0 .4-.1.52-.26l-.02.14.31-.08-.5-.3-.14.05.3.2c-.07 0-.2-.03-.26-.05l.14.07c-.22.16-.4-.07-.58-.17l.27.02c-.13-.12-.28-.2-.46-.16l.06-.2.47.23c.38-.13.71.26 1.1.2-.2-.2-.52-.28-.68-.53.49-.11.73.57 1.24.42-.32-.18-.63-.37-.96-.54l.35.04c-.14-.12-.33-.2-.5-.11-.18.08-.36.17-.57.14.16.09.31.17.46.27-.3-.04-.58-.18-.89-.22zm-3.62.98c.17-.14.5-.24.58.04-.1-.03-.2-.06-.28-.1.14.3.52.18.72.39h-.21c.12.1.28.34.44.15l.21.07c-.08.15-.25.16-.39.22-.3-.33-.7-.54-1.07-.77zm-.72.14c.59-.15 1.35.1 1.54.72a.8.8 0 0 1-.73-.07c-.3-.19-.53-.45-.81-.65zm-.31.17c.14-.02.3-.03.42.07.26.2.5.43.77.61-.32.02-.59-.16-.88-.24.17.2.41.34.67.42-.27.09-.51-.07-.7-.24-.2-.2-.43-.37-.68-.5.39 0 .71.22 1.07.33-.16-.23-.44-.31-.67-.45zm-.76.24c.6-.12.87.56 1.39.7-.21.15-.41-.04-.57-.16a3.3 3.3 0 0 0-.82-.54zm4.4-1.17c.38-.03.83.13.93.53-.36-.08-.63-.33-.92-.53zm-2.99.87c.41-.06.86.2 1 .59-.4-.07-.66-.4-1-.59zM34.78 2.06c.33.17.56.48.72.8.5.16.96.41 1.4.69-.9-.06-1.85-.6-2.12-1.5zm-.7.38c.6.4 1.23.78 1.82 1.2-.5-.16-1.05-.23-1.47-.56a1 1 0 0 1-.35-.64zm-.47.53c.71.52 1.63.62 2.33 1.15-.5-.18-1.03-.22-1.53-.4a1.55 1.55 0 0 1-.8-.75zm-.42.5c.92.37 1.87.66 2.77 1.07a4.5 4.5 0 0 1-2.77-1.08zm3.1.39c.41-.06.9-.18 1.27.08-.19.04-.36-.04-.53-.1.18.31.51.45.78.67-.22-.02-.44-.05-.65-.04.2.25.54.3.82.44-.46.12-.93.04-1.39.03.2-.07.42-.1.63-.15-.22-.13-.47-.1-.71-.13.14-.08.3-.11.47-.13-.11-.18-.33-.18-.5-.24.2-.08.4-.06.62-.07-.2-.26-.53-.26-.81-.36zm-3 .25c.87.04 1.65.44 2.44.73a4.27 4.27 0 0 1-2.43-.73zm.62.67c.67 0 1.28.31 1.94.4-.2.06-.42.05-.62.1.4.22.86.21 1.3.24-.3.07-.6.03-.9.09.16.08.33.12.5.1.18.05.37.07.56.09-.44.2-.93.1-1.4.13.23-.1.49-.05.73-.1-.37-.14-.8-.11-1.19-.17.2-.08.4-.07.6-.11-.29-.28-.74-.16-1.08-.34.24-.02.47 0 .7-.02-.35-.2-.8-.16-1.14-.41zm3.14.46c.42-.27.9-.02 1.32.1a.57.57 0 0 0-.29.37c-.24.03-.47.1-.71.12.2-.13.47-.16.67-.32-.25-.06-.49.03-.73.03a2 2 0 0 1 .4-.21c-.21-.07-.44-.08-.66-.1zm7.63 2.03c.17.07.32.16.47.26-.07.06-.14.14-.24.11-.15-.06-.18-.23-.23-.37zM.56 1.65h10.1v3.83h-.5a4.38 4.38 0 0 0-1.1-2.87c-.7-.63-1.69-.49-2.55-.5v11.16h1.75v.38H2.9v-.39h1.77V2.12c-.8.03-1.74-.14-2.41.41a4.28 4.28 0 0 0-1.24 2.96H.56V1.65zM10.83 1.65h4.81v.39H14.2v5.24h4.94V2.04h-1.46v-.39h4.78v.39h-1.5v11.23h1.5v.38h-4.78v-.39h1.45V7.69H14.2v5.59h1.45v.38h-4.81v-.38h1.5V2.04h-1.5v-.39zM22.52 1.65h9.07c0 1.24-.06 2.47-.06 3.7h-.46c-.05-.6-.06-1.22-.25-1.81a2.08 2.08 0 0 0-1.34-1.3c-.38-.11-.78-.13-1.17-.13h-2.45v5.17c.52 0 1.04.01 1.55-.07.4-.06.82-.25 1.01-.62.3-.57.23-1.24.24-1.86h.44v5.73h-.44c.02-.64.08-1.3-.15-1.9a1.19 1.19 0 0 0-.9-.73c-.58-.1-1.17-.05-1.75-.06v5.43h2.6c.67-.02 1.38-.11 1.94-.53.48-.38.9-.89 1.02-1.5.1-.53.1-1.08.11-1.62H32c.04 1.36.05 2.73.1 4.1h-9.58v-.38h1.5V2.04h-1.5v-.39zM.45 15.4H5.3v.38H3.8v11.23h1.5v.38H.45v-.38h1.49V15.78H.45v-.38zM5.62 15.4h3.71l5.53 8.56v-8.18h-1.72v-.38h3.71v.38h-1.5v11.7c-.11 0-.27.15-.34 0l-7.4-11.32V27h1.73v.38H5.62v-.38H7.1V15.78H5.62v-.38zM17.11 15.4h6.17c1.21.01 2.52.25 3.46 1.08a5.74 5.74 0 0 1 1.66 3.74 9.11 9.11 0 0 1-.63 4.62A4.2 4.2 0 0 1 25.73 27c-.84.36-1.77.39-2.67.4h-5.95V27h1.49V15.79h-1.49v-.38zm5.96.45h-2.61v11.09h2.6c.46-.01.93-.09 1.34-.3.45-.22.8-.61 1.06-1.03.37-.63.6-1.33.74-2.03.2-.95.23-1.92.2-2.88a9.14 9.14 0 0 0-.6-3 3.12 3.12 0 0 0-1.1-1.46 2.95 2.95 0 0 0-1.63-.39z"/>
  <path d="M28.14 15.4h9.08l-.07 3.7h-.46c-.04-.54-.05-1.09-.18-1.62a2.16 2.16 0 0 0-.98-1.32c-.42-.24-.92-.3-1.4-.3H31.5v5.16c.6 0 1.2.03 1.78-.12.37-.09.7-.35.83-.7.22-.55.18-1.15.19-1.73h.42v5.73h-.43c.03-.62.07-1.27-.14-1.86a1.18 1.18 0 0 0-.87-.76c-.59-.12-1.19-.06-1.78-.07v5.43h2.62c.65-.02 1.34-.11 1.88-.51.49-.37.91-.88 1.04-1.5.11-.54.1-1.1.13-1.64h.46l.08 4.1h-9.57v-.38h1.5V15.78h-1.5v-.38zM38 15.4h5.22c.79.01 1.63.11 2.28.6.7.52 1.03 1.4 1.1 2.26.04.87-.05 1.8-.55 2.55a2.75 2.75 0 0 1-2.19 1.1c-.83.03-1.67.01-2.5.02V27h1.6v.38h-4.95v-.38h1.5V15.78h-1.5v-.38zm3.35 6.06c.8-.03 1.64.09 2.4-.23.5-.2.76-.73.84-1.24.14-.83.14-1.68-.02-2.5-.07-.35-.14-.7-.35-1-.25-.37-.7-.6-1.14-.62-.58-.04-1.15 0-1.73-.02v5.6z"/>
  <path d="M46.4 15.4h9.07c0 1.23-.05 2.46-.05 3.7h-.47c-.06-.88-.03-1.89-.7-2.56-.43-.52-1.14-.67-1.8-.69h-2.7v5.17c.58-.01 1.16.03 1.73-.1.35-.08.7-.3.85-.63.28-.56.21-1.21.22-1.82h.44v5.73h-.44c.02-.63.08-1.3-.15-1.9a1.19 1.19 0 0 0-.91-.73c-.58-.1-1.16-.05-1.74-.06v5.43h2.64c.64-.02 1.31-.1 1.84-.49.49-.35.9-.85 1.06-1.45.12-.56.12-1.14.13-1.71h.47c.04 1.37.05 2.74.1 4.1H46.4v-.38h1.5V15.78h-1.5v-.38zM56.26 15.4h3.72c1.84 2.84 3.66 5.7 5.52 8.53v-8.15h-1.71v-.38h3.7v.38H66v11.7l-.28.08-7.45-11.4V27h1.73v.38h-3.73v-.38h1.49V15.78h-1.49v-.38zM67.65 15.4h4.9c1.1 0 2.23-.06 3.3.29.76.23 1.45.7 1.94 1.33.62.8.95 1.8 1.1 2.78.15.99.15 1.99.02 2.97-.14.95-.42 1.9-.94 2.71a3.83 3.83 0 0 1-1.9 1.6 7.1 7.1 0 0 1-2.33.31h-6.09v-.38h1.5V15.78h-1.5v-.38zm3.35.45v11.09h2.6c.6-.01 1.21-.14 1.69-.51.56-.44.91-1.09 1.15-1.75.39-1.07.5-2.21.52-3.35a10.2 10.2 0 0 0-.56-3.49 3.13 3.13 0 0 0-1.27-1.67 3.38 3.38 0 0 0-1.74-.32h-2.4z"/>
  <path d="M78.7 15.4h9.06c0 1.23-.05 2.46-.05 3.7h-.47c-.06-.7-.04-1.45-.36-2.1a2.11 2.11 0 0 0-1.18-1 4.37 4.37 0 0 0-1.32-.15h-2.34v5.17c.64-.01 1.31.05 1.94-.17.37-.12.65-.46.75-.84.14-.5.1-1.02.1-1.54h.45v5.73h-.45c.03-.62.07-1.26-.12-1.85a1.22 1.22 0 0 0-1.01-.8c-.55-.08-1.1-.03-1.66-.04v5.43h2.62c.64-.02 1.32-.1 1.85-.49.46-.33.86-.79 1.03-1.33.17-.6.14-1.22.17-1.83h.47l.08 4.1H78.7v-.38h1.48V15.78H78.7v-.38zM88.53 15.4h3.74l5.5 8.53v-8.15h-1.7v-.38h3.71v.38h-1.5v11.7l-.29.08-7.45-11.4V27h1.74v.38h-3.75v-.38h1.5V15.78h-1.5v-.38zM100.05 15.4h10.1v3.82h-.49a5.28 5.28 0 0 0-.48-1.97c-.23-.48-.55-.95-1.05-1.17-.66-.32-1.41-.2-2.12-.23v11.16h1.75v.38h-5.37v-.38h1.77V15.85c-.67.02-1.37-.07-2 .17-.53.22-.86.7-1.12 1.18a4.94 4.94 0 0 0-.53 2.02h-.46V15.4z"/>
  </svg>
