<svg xmlns="http://www.w3.org/2000/svg" viewBox="0 0 141 23" width="141" height="23" fill="#000">
  <path d="M12.3 4.15c-.48 0-.9-.05-1.34-.11v7.92c0 .2-.02.24-.13.33L6.3 15.15c.68.33 1.5.55 2.33.55 2.85 0 6.1-1.55 7.6-5.46.1-.22.27-.26.27.1v.27a8 8 0 0 1-8.1 8.1C3.15 18.7 0 14.76 0 10.65 0 7.57 1.69 4.7 5.55 3.5c.15-.06.2.02.09.11a7.14 7.14 0 0 0-2.61 5.61c0 2.27.92 4.54 2.96 5.74l1.14-.85c.37-.3.46-.57.46-.98V3.36a9.9 9.9 0 0 0-3.38-.72c-1.4 0-2.68.61-3.9 2.12-.13.15-.22.15-.22 0C.24 1.72 2.99 0 5.66 0c3.09 0 5.96 1.5 9.07 1.5 1.1 0 2.24-.23 3.18-.74.14-.04.16.05.11.16-.98 2.4-3.35 3.23-5.72 3.23zm14.67 14.34c-.11.1-.11.09-.2.02l-2.15-1.9c-.22-.2-.33-.35-.33-.7V8.56c0-.09 0-.16-.1-.24l-.73-.66c-.09-.04-.2-.09-.3-.02l-1.39.63v6.92c0 .11-.02.22.09.29l.61.54c.16.13.44.3.68.22l.22-.09c.27-.1.33.05.16.2l-2.48 2.12c-.11.1-.13.09-.22.02l-2.2-1.92c-.26-.22-.26-.26-.26-.61V4.04c0-.13 0-.15-.13-.26l-.26-.24c-.26-.24-.37-.2-.72-.03l-.55.24c-.09.03-.16-.08-.02-.21l2.85-2.38c.1-.11.1-.09.2-.02l1.73 1.59c.21.22.32.35.32.7V7.9l3.58-2.25c.1-.04.22-.04.3.03l1.76 1.61c.24.22.28.37.28.63v7.36c0 .13 0 .15.14.26l.68.57c.26.24.37.2.72.02l.55-.24c.09-.02.15.09.02.22l-2.85 2.38zM38.44 9.6l-4.78 2.97v2.27c0 .22.02.31.22.38l1.53.8c.26.13.72.26.99.11l1.42-.83c.24-.13.44-.04.29.05l-3.9 3.14c-.1.09-.05.04-.16 0l-3.48-1.83c-.27-.14-.36-.2-.36-.57V7.64c0-.13.05-.2.22-.24l5.68-1.83c.09-.03.16-.05.22.04l2.13 3.75c.09.11.09.18-.02.24zM33.72 7l-.06.03v5.22l1.88-1.55c.11-.1.11-.13.05-.22L33.72 7zM56.6 4.16c-.48 0-.9-.05-1.34-.11v7.92c0 .2-.02.24-.13.33l-4.51 2.88c.68.33 1.49.55 2.32.55 2.85 0 6.1-1.55 7.6-5.46.1-.22.27-.26.27.1v.27a8 8 0 0 1-8.09 8.1c-5.26 0-8.42-3.95-8.42-8.06 0-3.07 1.69-5.95 5.55-7.16.15-.06.2.03.09.11a7.14 7.14 0 0 0-2.61 5.61c0 2.27.92 4.54 2.96 5.75l1.14-.81c.4-.26.46-.57.46-.98V3.36a9.9 9.9 0 0 0-3.38-.72c-1.4 0-2.67.61-3.9 2.12-.13.15-.22.15-.22 0C44.53 1.72 47.28 0 49.95 0c3.09 0 5.96 1.5 9.08 1.5 1.1 0 2.23-.23 3.17-.74.14-.04.16.05.11.16-.98 2.4-3.35 3.23-5.72 3.23zM70.23 9.6l-4.78 2.97v2.27c0 .22.02.31.22.38l1.53.8c.27.13.73.26.99.11l1.43-.83c.24-.13.43-.04.3.05l-3.9 3.14c-.09.09-.04.04-.15 0l-3.49-1.83c-.26-.14-.35-.2-.35-.57V7.64c0-.13.04-.2.22-.24l5.68-1.83c.08-.03.15-.05.22.04l2.12 3.75c.07.11.07.18-.04.24zM65.52 7l-.05.03v5.22l1.89-1.55c.1-.1.1-.13.04-.22L65.52 7zM74 18.5c-.1.1-.13.09-.22.02l-2.2-1.92c-.25-.22-.25-.26-.25-.61V4.04c0-.13 0-.15-.14-.26l-.26-.24c-.26-.24-.37-.2-.72-.03l-.55.24c-.09.03-.15-.08-.02-.21l2.85-2.38c.1-.11.1-.09.2-.02l1.73 1.59c.22.22.33.35.33.7v11.8c0 .12-.03.23.08.3l.62.54c.15.13.44.3.68.21l.22-.08c.26-.11.33.04.15.2L74 18.48zM85.25 9.6l-4.78 2.97v2.27c0 .22.02.31.22.38l1.53.8c.27.13.73.26.99.11l1.42-.83c.25-.13.44-.04.31.05l-3.9 3.14c-.09.09-.04.04-.15 0l-3.5-1.83c-.25-.14-.34-.2-.34-.57V7.64c0-.13.04-.2.22-.24l5.68-1.83c.08-.03.15-.05.22.04l2.12 3.75c.05.11.05.18-.04.24zM80.5 7l-.04.03v5.22l1.88-1.55c.11-.1.11-.13.05-.22L80.5 7zm14.54 13.35l-2.96 2.37c-.09.1-.13.07-.2.03-1.55-1.05-2.8-1.53-4.14-1.53-.94 0-1.89.2-3.1.5-.1.02-.12-.04-.08-.13 1.27-1.9 2.83-2.49 4.27-2.49 2.15 0 4.17 1.31 4.98 1.86l.09-.05c.22-.48.3-.94.3-1.37 0-1.38-1.13-2.47-2.54-3.17l-2.91 2.14c-.11.09-.2.05-.27-.02l-1.84-1.66c-.26-.24-.33-.35-.33-.61V8.36c0-.13.11-.15.16-.2l6.2-2.55c.16-.09.26-.09.33-.02l1.73 1.72c.22.22.33.37.33.57v7.14c1.14.83 1.62 1.66 1.62 2.49 0 .96-.46 1.85-1.64 2.84zm-3.38-11.9c0-.11-.02-.2-.13-.3l-.98-.99c-.05-.07-.1-.02-.16 0l-.66.28v7.71c0 .44.11.48.55.9.24.21.37.3.62.3.22 0 .57-.15.79-.3v-7.6h-.03zm12.17.59a.6.6 0 0 1-.4.15.6.6 0 0 1-.39-.15l-1.64-1.4-.16.13v7.47c0 .15 0 .2.11.26l.44.37c.46.37.57.44 1.06.24l.32-.13c.22-.09.27.02.14.15l-2.79 2.34c-.1.1-.13.09-.22.02l-2.12-1.9c-.25-.22-.33-.3-.33-.59V8.36l-.68-.65c-.07-.05-.1-.05-.16 0l-.8.45c-.25.14-.34-.04-.16-.2l2.78-2.33c.11-.09.16-.09.22-.02l1.89 1.86 1.86-1.84c.11-.09.2-.1.29 0l1.42 1.31c.27.24.44.37.6.37.1 0 .24-.04.41-.15l.37-.24c.24-.15.35.09.22.22l-2.28 1.9zm9.93 9.45c-.1.1-.13.09-.21.02l-2.46-2.14-2.92 2.14c-.1.09-.13.05-.24-.02l-1.86-1.66c-.3-.24-.33-.3-.33-.61V8.36c0-.13.1-.15.15-.2l6.25-2.57a.3.3 0 0 1 .33.04l1.67 1.66c.24.24.33.37.33.55v7.57l.48.44c.6.5.68.48.94.35l.37-.2c.25-.13.44-.02.22.15l-2.72 2.34zm-2.67-9.98a.44.44 0 0 0-.15-.37l-.97-.96c-.04-.06-.04-.02-.13 0l-.68.29v7.75c0 .26.04.39.24.56l.35.33c.24.22.55.33.9.15l.46-.22V8.51h-.02zm15.37 8.01l-2.46 1.88c-.26.22-.32.16-.65-.02l-2.57-1.55v3.14l.72.62c.1.04.1.1 0 .2l-2.12 1.96c-.05.02-.11.08-.22 0l-2.37-1.9c-.09-.05-.04-.11 0-.2l.6-.68V8.43l-.6-.72c-.02-.03-.04-.03-.1 0l-.82.39c-.2.1-.33-.02-.15-.15l2.74-2.32c.08-.09.2-.09.24-.02l2 1.96 3.61-1.92c.11-.04.2-.02.22 0l1.8 1.66c.13.13.3.35.3.6v8.2c.03.17.03.28-.17.41zm-3.2-7.94c0-.15-.05-.3-.15-.4l-.75-.71c-.04-.05-.11-.05-.2-.03l-1.33.5v8.52l.74.24c.61.2.9.15 1.16-.09l.27-.24c.24-.22.26-.46.26-.9v-6.9zm13.86 9.91c-.11.1-.11.09-.2.02l-2.15-1.9c-.22-.2-.33-.35-.33-.7V8.56c0-.09 0-.16-.1-.24l-.73-.66c-.09-.04-.2-.09-.29-.02l-1.38.63v6.92c0 .11-.02.22.09.29l.61.54c.16.13.44.3.68.22l.22-.09c.27-.1.33.05.16.2l-2.48 2.12c-.11.1-.13.09-.22.02l-2.2-1.92c-.26-.22-.26-.26-.26-.61V4.04c0-.13 0-.15-.13-.26l-.26-.24c-.26-.24-.37-.2-.73-.03l-.54.24c-.1.03-.16-.08-.03-.21l2.86-2.38c.1-.11.1-.09.2-.02l1.72 1.59c.22.22.33.35.33.7V7.9l3.6-2.25c.1-.04.22-.04.3.03l1.76 1.61c.24.22.29.37.29.63v7.36c0 .13 0 .15.13.26l.68.57c.26.24.37.2.72.02l.55-.24c.09-.02.15.09.02.22l-2.9 2.38z"/>
</svg>
