<svg xmlns="http://www.w3.org/2000/svg" viewBox="0 0 198 16" width="198" height="16" fill="#000">
  <path d="M4.74 13.64c0 1.12.31 1.38 2.35 1.38v.69H0V15c1.4 0 1.88-.13 1.88-1.34V2.3C1.88 1.08 1.4.96 0 .96v-.7h11.9l.06 4.23h-.57c-.32-3.19-1.12-3.47-4.07-3.47H4.7v6.31h2.1c2 0 2.13-.31 2.29-1.9h.56v4.6H9.1c-.16-1.59-.28-1.87-2.3-1.87H4.7v5.48h.04zm8.68 2.07V15c1.4 0 1.88-.13 1.88-1.34V2.3c0-1.22-.47-1.34-1.88-1.34v-.7h6.61v.7c-1.4 0-1.87.13-1.87 1.34v11.37c0 1.21.47 1.35 1.87 1.35v.69h-6.6zm21.63.25L24.5 2.87V13.6c0 1.25.86 1.43 2.32 1.43v.7h-5.6v-.7c1.46 0 2.24-.18 2.24-1.43V1.69c-.65-.71-1.13-.75-2.25-.75v-.7h4.97l8.07 10.42V2.34c0-1.23-.85-1.42-2.32-1.42V.24h5.63v.7c-1.46 0-2.25.2-2.25 1.44v13.58h-.26zm7.54-.25h-5.57V15c1.46 0 2.13-.18 2.6-1.47L44.66.1h1.4l5.4 13.55c.48 1.22.71 1.34 1.82 1.34v.7h-6.46v-.7c1.97 0 2.15-.16 1.69-1.34l-1.6-4.11h-4.83l-1.43 3.98c-.45 1.21.25 1.47 1.97 1.47v.73h-.03zm-.23-6.98h4.2l-2.2-5.54-2 5.54zm25.42 7.23L57.25 2.87V13.6c0 1.25.86 1.43 2.32 1.43v.7H54.1v-.7c1.35 0 2.14-.18 2.14-1.43V1.73c-.77-.7-1.34-.77-2.6-.77v-.7h5.28l8.06 10.41V2.35c0-1.23-.84-1.42-2.32-1.42V.25h5.6v.7C68.8.96 68 1.16 68 2.4v13.58h-.22zM83.39.23h.38l.22 4.62-.56.03c-.4-2.65-1.78-4.05-4.36-4.05-2.87 0-5.03 2.45-5.03 6.21 0 4.81 3.02 7.55 6.2 7.55a4.8 4.8 0 0 0 3.82-1.68l.44.45c-.99 1.4-2.93 2.57-5.53 2.57a7.74 7.74 0 0 1-7.83-7.84A7.88 7.88 0 0 1 79.1 0c2.06 0 3.15.9 3.72.9.25 0 .44-.23.56-.67h.01zm2.39 15.48V15c1.4 0 1.87-.13 1.87-1.34V2.3c0-1.22-.47-1.34-1.87-1.34v-.7h6.6v.7c-1.39 0-1.87.13-1.87 1.34v11.37c0 1.21.48 1.35 1.88 1.35v.69h-6.61zm12.84 0h-5.18V15c1.14 0 1.75-.18 2.23-1.47L100.7.1h1.4l5.4 13.55c.47 1.22.7 1.34 1.82 1.34v.7h-6.47v-.7c1.97 0 2.16-.16 1.7-1.34l-1.6-4.11h-4.83l-1.44 3.98c-.44 1.21.26 1.47 1.97 1.47v.73h-.03zm-.22-6.98h4.2l-2.16-5.54-2.04 5.54zm12 6.98V15c1.4 0 1.87-.13 1.87-1.34V2.3c0-1.22-.47-1.34-1.88-1.34v-.7h6.59v.7c-1.41 0-1.85.13-1.85 1.34v11.47c0 1.02.5 1.14 1.34 1.14h.79c3 0 3.94-.44 4.78-3.84l.56.05-.46 4.56h-11.75v.03zM142.44.25l.06 4.5h-.57c-.32-3.31-1.11-3.73-4.07-3.73h-.95v12.62c0 1.22.45 1.38 2.35 1.38v.69h-7.57V15c1.9 0 2.38-.18 2.38-1.37V1.04h-.94c-2.97 0-3.76.4-4.07 3.72h-.59l.07-4.5h13.9zm1.5 15.46V15c1.4 0 1.88-.13 1.88-1.34V2.3c0-1.22-.48-1.34-1.88-1.34v-.7h6.61v.7c-1.4 0-1.87.13-1.87 1.34v11.37c0 1.21.46 1.35 1.87 1.35v.69h-6.61zM170.47.25v.7c-1.4 0-2 .07-1.87 1.32l1.2 11.47c.13 1.17.57 1.3 1.98 1.3v.7h-6.59v-.7c1.37 0 1.85-.13 1.75-1.31L165.7 1.69 160.83 16h-.19l-4.77-14.35-1.14 12.05c-.13 1.22.7 1.34 2.1 1.34v.7h-5.16v-.7c1.4 0 1.87-.22 1.97-1.34l1.22-11.47c.12-1.22-.48-1.31-1.88-1.31V.26h5.4l3.25 10.54 3.5-10.55h5.34zm12.3 9.79h-.56c-.17-1.6-.29-1.88-2.3-1.88h-2.34v5.6c0 1.03.5 1.15 1.33 1.15h1.27c3 0 3.94-.44 4.77-3.84l.57.05-.54 4.56h-12.14v-.7c1.4 0 1.87-.12 1.87-1.34V2.29c0-1.2-.48-1.33-1.87-1.33v-.7h11.66l.07 3.85H184c-.36-2.74-1.06-3.06-4.11-3.06h-2.3v6.28h2.35c2.01 0 2.14-.31 2.3-1.9h.56v4.6h-.02zm12.3 2.48c0-1.4-.9-2.1-2.43-2.96l-2.45-1.28c-1.84-.98-2.93-2.06-2.93-4.01 0-2.42 2.06-4.27 4.78-4.27 1.84 0 2.8.9 3.33.9.36 0 .5-.23.67-.67h.45l.22 4.33-.57.03c-.32-2.1-1.82-3.73-3.92-3.73-1.6 0-2.63.96-2.63 2.3 0 1.46 1.11 2.06 2.34 2.74l2.11 1.12c1.97 1.07 3.38 2.15 3.38 4.23 0 2.74-2.37 4.7-5.3 4.7-2.06 0-3.08-1-3.61-1-.36 0-.55.32-.7.8h-.45l-.32-4.6.57-.05c.45 2.86 2.42 4.04 4.4 4.04 1.65-.03 3.04-.76 3.04-2.62h.01z"/>
</svg>
