<svg height="512pt" viewBox="0 0 512.00103 512" width="512pt" xmlns="http://www.w3.org/2000/svg" fill="#DB9F00"><path d="m480.269531 245.222656c-7.265625-4.425781-9.566406-13.902344-5.140625-21.164062 4.425782-7.261719 13.902344-9.566406 21.164063-5.140625l14.285156 8.703125c-3.65625-33.019532-13.609375-64.167969-28.640625-92.214844l-37.105469-.875c-8.503906-.199219-15.230469-7.253906-15.03125-15.757812.199219-8.503907 7.238281-15.238282 15.757813-15.035157l16.589844.390625c-19.234376-26.039062-43.277344-48.316406-70.808594-65.515625l-32.539063 17.777344c-2.34375 1.28125-4.875 1.886719-7.371093 1.886719-5.449219 0-10.730469-2.898438-13.53125-8.019532-4.078126-7.464843-1.332032-16.820312 6.132812-20.898437l14.65625-8.007813c-28.984375-12.734374-60.757812-20.25-94.132812-21.351562l-19.332032 31.734375c-2.902344 4.757813-7.972656 7.386719-13.167968 7.386719-2.730469 0-5.496094-.726563-7.996094-2.25-7.265625-4.425782-9.566406-13.902344-5.140625-21.164063l8.703125-14.285156c-33.023438 3.65625-64.167969 13.609375-92.214844 28.640625l-.875 37.105469c-.195312 8.378906-7.050781 15.035156-15.390625 15.035156-.121094 0-.246094 0-.371094-.003906-8.5-.199219-15.230469-7.253907-15.03125-15.757813l.390625-16.589844c-26.039062 19.234376-48.316406 43.277344-65.519531 70.808594l17.777344 32.539063c4.078125 7.464843 1.332031 16.820312-6.132813 20.898437-2.34375 1.28125-4.875 1.890625-7.367187 1.890625-5.453125 0-10.734375-2.902343-13.53125-8.023437l-8.003907-14.65625c-12.734374 28.988281-20.25 60.765625-21.351562 94.136718l31.730469 19.332032c7.265625 4.425781 9.566406 13.902344 5.140625 21.164062-2.898438 4.761719-7.96875 7.390625-13.164063 7.390625-2.734375 0-5.496093-.726562-8-2.25l-14.285156-8.703125c3.65625 33.023438 13.609375 64.171875 28.640625 92.214844l37.105469.875c8.503906.199219 15.230469 7.253906 15.03125 15.757812-.195313 8.378907-7.050781 15.039063-15.390625 15.039063-.121094 0-.242188 0-.367188-.003906l-16.589844-.390625c19.234376 26.039062 43.277344 48.316406 70.808594 65.515625l32.539063-17.777344c7.464843-4.074219 16.820312-1.332031 20.898437 6.132813 4.078125 7.464843 1.332032 16.820312-6.128906 20.898437l-14.65625 8.007813c28.984375 12.734374 60.757812 20.25 94.132812 21.351562l19.332032-31.730469c4.425781-7.265625 13.902344-9.566406 21.164062-5.140625 7.265625 4.425782 9.566406 13.902344 5.140625 21.164063l-8.703125 14.285156c33.023438-3.65625 64.167969-13.609375 92.210938-28.636719l.878906-37.109375c.199219-8.5 7.226562-15.207031 15.757812-15.03125 8.503907.199219 15.234376 7.253907 15.035157 15.757813l-.390625 16.589844c26.039062-19.234376 48.316406-43.277344 65.519531-70.808594l-17.777344-32.539063c-4.078125-7.464843-1.335937-16.820312 6.128907-20.898437 7.460937-4.078125 16.824218-1.335938 20.902343 6.132812l8.003907 14.65625c12.734374-28.988281 20.25-60.761718 21.351562-94.136718zm-224.269531 196.863282c-102.609375 0-186.085938-83.476563-186.085938-186.085938s83.476563-186.085938 186.085938-186.085938 186.085938 83.476563 186.085938 186.085938-83.476563 186.085938-186.085938 186.085938zm0 0"/><path d="m256 100.714844c-85.625 0-155.285156 69.660156-155.285156 155.285156s69.660156 155.285156 155.285156 155.285156 155.285156-69.660156 155.285156-155.285156-69.660156-155.285156-155.285156-155.285156zm-.003906 248.753906c-51.539063 0-93.46875-41.929688-93.46875-93.46875s41.929687-93.46875 93.46875-93.46875c51.539062 0 93.46875 41.929688 93.46875 93.46875s-41.929688 93.46875-93.46875 93.46875zm0 0"/></svg>